<?xml version="1.0" encoding="utf-8"?>
<!-- Generator: Adobe Illustrator 25.2.1, SVG Export Plug-In . SVG Version: 6.00 Build 0)  -->
<svg version="1.1" xmlns="http://www.w3.org/2000/svg" xmlns:xlink="http://www.w3.org/1999/xlink" x="0px" y="0px"
	 viewBox="0 0 141.9 189.7" style="enable-background:new 0 0 141.9 189.7;" xml:space="preserve">
<style type="text/css">
	.st0{fill:#F6EFEB;}
</style>
<g id="BG">
</g>
<g id="Layer_1">
	<g>
		<g>
			<path class="st0" d="M3.5,85.7"/>
		</g>
		<path class="st0" d="M80.1,99.4L141.6,0H83.7L83,1.8c-3.6,8-7.1,16.5-10.5,24.8c-8,19.3-16.1,39.2-25.1,50.8V0H0v87.2l1.2,0.9
			c0.7,0.5,1.5,1,2.2,1.5c0.1,0,0.1,0.1,0.2,0.1C4.3,90.2,5,90.6,5.8,91c0.1,0,0.2,0.1,0.2,0.1c0.7,0.4,1.5,0.8,2.3,1.1
			c0.1,0,0.2,0.1,0.3,0.1c0.8,0.3,1.6,0.7,2.3,0.9c0.1,0,0.1,0,0.2,0.1c0.8,0.3,1.6,0.6,2.5,0.8c0,0,0,0,0.1,0
			c2.6,0.7,5.3,1.2,7.9,1.3c0,0,0,0,0.1,0c0.6,0,1.3,0.1,1.9,0.1c0.2,0,0.4,0,0.5,0c0.3,0,0.5,0,0.8,0c0.6,0,1.2-0.1,1.8-0.1
			c0.3,0,0.6-0.1,0.8-0.1c0.6-0.1,1.2-0.1,1.8-0.2c0.3,0,0.6-0.1,0.9-0.1c0.6-0.1,1.2-0.2,1.7-0.4c0.3-0.1,0.6-0.1,0.8-0.2
			c0.6-0.2,1.2-0.3,1.8-0.5c0.3-0.1,0.5-0.2,0.8-0.2c0.6-0.2,1.2-0.4,1.8-0.7c0.2-0.1,0.5-0.2,0.7-0.3c0.7-0.3,1.3-0.6,2-0.9
			c0.2-0.1,0.3-0.1,0.5-0.2c0.8-0.4,1.6-0.9,2.4-1.3l0.1-0.1c0.4-0.3,0.8-0.6,1.3-0.9c0,0,0,0,0.1,0c0.8-0.6,1.6-1.2,2.3-1.9l1-0.9
			v-0.1C58.8,75.3,68.2,52.7,78,28.8c3.1-7.6,6.4-15.5,9.7-22.8h43.2L72.9,99.5l57.6,84.2H87.4c-5.6-9.5-10-19.4-14.2-28.9
			c-7.2-16.2-14.1-31.6-25.8-42.3v0l-1-0.9c-0.2-0.1-0.3-0.3-0.5-0.4c-0.2-0.2-0.4-0.4-0.7-0.6c-0.8-0.6-1.5-1.2-2.4-1.8l-0.2-0.1
			c-13-7.8-29.3-7-41.4,2.1L0,111.7v78h47.3v-68.7c8.4,9.5,14.1,22.1,20.4,36.2c4.5,10.2,9.2,20.7,15.4,31l0.9,1.5h57.9L80.1,99.4z"
			/>
		<g>
			<path class="st0" d="M0,104.4v-9.8l9.8,4.9L0,104.4z"/>
		</g>
	</g>
</g>
</svg>
