<?xml version="1.0" encoding="utf-8"?>
<!-- Generator: Adobe Illustrator 25.2.1, SVG Export Plug-In . SVG Version: 6.00 Build 0)  -->
<svg version="1.1" xmlns="http://www.w3.org/2000/svg" xmlns:xlink="http://www.w3.org/1999/xlink" x="0px" y="0px"
	 viewBox="0 0 484.6 354.1" style="enable-background:new 0 0 484.6 354.1;" xml:space="preserve">
<style type="text/css">
	.st0{fill:#214F45;}
</style>
<g id="BG">
</g>
<g id="Layer_1">
	<g>
		<g>
			<g>
				<g>
					<path class="st0" d="M61.6,316.2L39,280.9v35.3H8.6v-92.7L0,216.1l39-13.7v76l11.5-8.3c7.4-5.5,11.1-9.1,11.1-15.9
						c0-3.9-1.7-8.3-6.5-10.8v-0.8h30.3c0.9,1.2,1.2,2.3,1.2,3.8c0,6.1-7.1,10.5-17.1,14.9l-9.3,4.1l34.6,50.8H61.6z"/>
					<path class="st0" d="M165.7,302.6c-6.4,9.7-16.5,15.2-30.6,15.2c-21.4,0-39-14.9-39-38.4c0-22.2,14.9-40.5,39.1-40.5
						c14.3,0,24.1,8.3,24.1,19.4c0,12.6-9.7,23.7-27.9,30.5c8.6,8.5,19.6,14.1,29.7,14.1c1.5,0,3-0.2,4.4-0.5L165.7,302.6z
						 M114.8,253.1c0,12.6,6.5,25.3,15.6,34.7c4.2-5.5,5.9-11.5,5.9-19.3c0-13.2-8.8-24.4-15.3-24.4
						C117.1,244.1,114.8,247.5,114.8,253.1z"/>
					<path class="st0" d="M272.9,316.2v-48.1c0-11.8-1.8-15.8-8.3-15.8c-3.2,0-6.4,0.8-9.4,2.3c0.3,2.1,0.5,4.4,0.5,7v54.6h-30.3
						v-48.1c0-11.8-1.8-15.8-8.3-15.8c-3,0-6.1,0.6-8.9,2v61.9h-30.3v-57.8L169,251l39-13.7v15.2c12.3-9.9,20.3-14.4,28.8-14.4
						c10.3,0,16.1,5.2,18.1,15c12.7-10.3,20.9-15,29.6-15c12.9,0,18.8,8,18.8,23.5v54.6H272.9z"/>
					<path class="st0" d="M407.8,274.8c0,26.7-14.7,42.9-35.2,42.9c-7,0-13-2.1-18.2-5.5v41.9H324v-95.7l-8.6-7.4l39-13.7v15
						c8-8.2,17.4-13.5,26.4-13.5C396.1,238.8,407.8,251.3,407.8,274.8z M375.3,283.4c0-20.3-4.4-30.5-14.6-30.5
						c-2.3,0-4.2,0.6-6.4,1.5v55.2c2.1,1.5,4.9,2.3,7.4,2.3C369.7,312,375.3,301.6,375.3,283.4z"/>
				</g>
			</g>
			<path class="st0" d="M455.3,238.8c-15.2,0-26.4,6.2-36.7,17.8l0.8,0.8c5.2-3.9,9.9-5.8,16.7-5.8c9,0,15,5.1,17.2,15.1
				c-24.6,3.6-39.1,15-39.1,32.1c0,11.9,6.7,18.9,16.5,18.9c8.3,0,16.4-5.1,23.5-12.6v11.1h30.3v-44.5
				C484.6,249.8,474.4,238.8,455.3,238.8z M454.2,302.4c-1.4,0.4-2.6,0.6-3.5,0.6c-6.1,0-12.6-4.7-12.6-13.6
				c0-9.8,6.7-16.9,15.6-20.2c0.3,2.3,0.5,4.7,0.5,7.4V302.4z"/>
		</g>
		<g>
			<g>
				<path class="st0" d="M172.5,85.7"/>
			</g>
			<path class="st0" d="M249.1,99.4L310.6,0h-57.9L252,1.8c-3.6,8-7.1,16.5-10.5,24.8c-8,19.3-16.1,39.2-25.1,50.8V0H169v87.2
				l1.2,0.9c0.7,0.5,1.5,1,2.2,1.5c0.1,0,0.1,0.1,0.2,0.1c0.7,0.5,1.5,0.9,2.2,1.3c0.1,0,0.2,0.1,0.2,0.1c0.7,0.4,1.5,0.8,2.3,1.1
				c0.1,0,0.2,0.1,0.3,0.1c0.8,0.3,1.6,0.7,2.3,0.9c0.1,0,0.1,0,0.2,0.1c0.8,0.3,1.6,0.6,2.5,0.8c0,0,0,0,0.1,0
				c2.6,0.7,5.3,1.2,7.9,1.3c0,0,0,0,0.1,0c0.6,0,1.3,0.1,1.9,0.1c0.2,0,0.4,0,0.5,0c0.3,0,0.5,0,0.8,0c0.6,0,1.2-0.1,1.8-0.1
				c0.3,0,0.6-0.1,0.8-0.1c0.6-0.1,1.2-0.1,1.8-0.2c0.3,0,0.6-0.1,0.9-0.1c0.6-0.1,1.2-0.2,1.7-0.4c0.3-0.1,0.6-0.1,0.8-0.2
				c0.6-0.2,1.2-0.3,1.8-0.5c0.3-0.1,0.5-0.2,0.8-0.2c0.6-0.2,1.2-0.4,1.8-0.7c0.2-0.1,0.5-0.2,0.7-0.3c0.7-0.3,1.3-0.6,2-0.9
				c0.2-0.1,0.3-0.1,0.5-0.2c0.8-0.4,1.6-0.9,2.4-1.3l0.1-0.1c0.4-0.3,0.8-0.6,1.3-0.9c0,0,0,0,0.1,0c0.8-0.6,1.6-1.2,2.3-1.9l1-0.9
				v-0.1c11.5-11.1,20.8-33.7,30.6-57.6c3.1-7.6,6.4-15.5,9.7-22.8h43.2l-57.9,93.5l57.6,84.2h-43.1c-5.6-9.5-10-19.4-14.2-28.9
				c-7.2-16.2-14.1-31.6-25.8-42.3v0l-1-0.9c-0.2-0.1-0.3-0.3-0.5-0.4c-0.2-0.2-0.4-0.4-0.7-0.6c-0.8-0.6-1.5-1.2-2.4-1.8l-0.2-0.1
				c-13-7.8-29.3-7-41.4,2.1l-1.2,0.9v78h47.3v-68.7c8.4,9.5,14.1,22.1,20.4,36.2c4.5,10.2,9.2,20.7,15.4,31l0.9,1.5h57.9
				L249.1,99.4z"/>
			<g>
				<path class="st0" d="M169,104.4v-9.8l9.8,4.9L169,104.4z"/>
			</g>
		</g>
	</g>
</g>
</svg>
