<?xml version="1.0" encoding="utf-8"?>
<!-- Generator: Adobe Illustrator 25.2.1, SVG Export Plug-In . SVG Version: 6.00 Build 0)  -->
<svg version="1.1" xmlns="http://www.w3.org/2000/svg" xmlns:xlink="http://www.w3.org/1999/xlink" x="0px" y="0px"
	 viewBox="0 0 141.9 243.3" style="enable-background:new 0 0 141.9 243.3;" xml:space="preserve">
<style type="text/css">
	.st0{fill:#214F45;}
</style>
<g id="BG">
</g>
<g id="Layer_1">
	<g>
		<g>
			<g>
				<g>
					<path class="st0" d="M17.8,232.4l-6.5-10.2v10.2H2.6v-26.7l-2.5-2.1l11.2-3.9v21.9l3.3-2.4c2.1-1.6,3.2-2.6,3.2-4.6
						c0-1.1-0.5-2.4-1.9-3.1v-0.2h8.7c0.3,0.3,0.3,0.7,0.3,1.1c0,1.7-2.1,3-4.9,4.3l-2.7,1.2l10,14.7H17.8z"/>
					<path class="st0" d="M47.8,228.4c-1.8,2.8-4.8,4.4-8.8,4.4c-6.2,0-11.2-4.3-11.2-11.1c0-6.4,4.3-11.7,11.3-11.7
						c4.1,0,7,2.4,7,5.6c0,3.6-2.8,6.8-8,8.8c2.5,2.4,5.6,4.1,8.6,4.1C47,228.5,47.4,228.5,47.8,228.4L47.8,228.4z M33.2,214.2
						c0,3.6,1.9,7.3,4.5,10c1.2-1.6,1.7-3.3,1.7-5.6c0-3.8-2.5-7-4.4-7C33.8,211.6,33.2,212.6,33.2,214.2z"/>
					<path class="st0" d="M78.7,232.4v-13.9c0-3.4-0.5-4.5-2.4-4.5c-0.9,0-1.8,0.2-2.7,0.7c0.1,0.6,0.1,1.3,0.1,2v15.7H65v-13.9
						c0-3.4-0.5-4.5-2.4-4.5c-0.9,0-1.7,0.2-2.6,0.6v17.8h-8.7v-16.7l-2.5-2.1l11.2-3.9v4.4c3.5-2.8,5.9-4.2,8.3-4.2
						c3,0,4.6,1.5,5.2,4.3c3.7-3,6-4.3,8.5-4.3c3.7,0,5.4,2.3,5.4,6.8v15.7H78.7z"/>
					<path class="st0" d="M117.6,220.4c0,7.7-4.2,12.4-10.1,12.4c-2,0-3.8-0.6-5.2-1.6v12.1h-8.7v-27.6l-2.5-2.1l11.2-3.9v4.3
						c2.3-2.4,5-3.9,7.6-3.9C114.3,210.1,117.6,213.7,117.6,220.4z M108.3,222.9c0-5.9-1.3-8.8-4.2-8.8c-0.7,0-1.2,0.2-1.8,0.4v15.9
						c0.6,0.4,1.4,0.7,2.1,0.7C106.6,231.1,108.3,228.2,108.3,222.9z"/>
				</g>
			</g>
			<path class="st0" d="M131.3,210.1c-4.4,0-7.6,1.8-10.6,5.1l0.2,0.2c1.5-1.1,2.8-1.7,4.8-1.7c2.6,0,4.3,1.5,5,4.4
				c-7.1,1-11.3,4.3-11.3,9.3c0,3.4,1.9,5.4,4.8,5.4c2.4,0,4.7-1.5,6.8-3.6v3.2h8.7v-12.8C139.8,213.2,136.8,210.1,131.3,210.1z
				 M131,228.4c-0.4,0.1-0.7,0.2-1,0.2c-1.7,0-3.6-1.4-3.6-3.9c0-2.8,1.9-4.9,4.5-5.8c0.1,0.6,0.2,1.4,0.2,2.1V228.4z"/>
		</g>
		<g>
			<path class="st0" d="M3.5,85.7"/>
		</g>
		<path class="st0" d="M80.1,99.4L141.6,0H83.7L83,1.8c-3.6,8-7.1,16.5-10.5,24.8c-8,19.3-16.1,39.2-25.1,50.8V0H0v87.2l1.2,0.9
			c0.7,0.5,1.5,1,2.2,1.5c0.1,0,0.1,0.1,0.2,0.1C4.3,90.2,5,90.6,5.8,91c0.1,0,0.2,0.1,0.2,0.1c0.7,0.4,1.5,0.8,2.3,1.1
			c0.1,0,0.2,0.1,0.3,0.1c0.8,0.3,1.6,0.7,2.3,0.9c0.1,0,0.1,0,0.2,0.1c0.8,0.3,1.6,0.6,2.5,0.8c0,0,0,0,0.1,0
			c2.6,0.7,5.3,1.2,7.9,1.3c0,0,0,0,0.1,0c0.6,0,1.3,0.1,1.9,0.1c0.2,0,0.4,0,0.5,0c0.3,0,0.5,0,0.8,0c0.6,0,1.2-0.1,1.8-0.1
			c0.3,0,0.6-0.1,0.8-0.1c0.6-0.1,1.2-0.1,1.8-0.2c0.3,0,0.6-0.1,0.9-0.1c0.6-0.1,1.2-0.2,1.7-0.4c0.3-0.1,0.6-0.1,0.8-0.2
			c0.6-0.2,1.2-0.3,1.8-0.5c0.3-0.1,0.5-0.2,0.8-0.2c0.6-0.2,1.2-0.4,1.8-0.7c0.2-0.1,0.5-0.2,0.7-0.3c0.7-0.3,1.3-0.6,2-0.9
			c0.2-0.1,0.3-0.1,0.5-0.2c0.8-0.4,1.6-0.9,2.4-1.3l0.1-0.1c0.4-0.3,0.8-0.6,1.3-0.9c0,0,0,0,0.1,0c0.8-0.6,1.6-1.2,2.3-1.9l1-0.9
			v-0.1C58.8,75.3,68.2,52.7,78,28.8c3.1-7.6,6.4-15.5,9.7-22.8h43.2L72.9,99.5l57.6,84.2H87.4c-5.6-9.5-10-19.4-14.2-28.9
			c-7.2-16.2-14.1-31.6-25.8-42.3v0l-1-0.9c-0.2-0.1-0.3-0.3-0.5-0.4c-0.2-0.2-0.4-0.4-0.7-0.6c-0.8-0.6-1.5-1.2-2.4-1.8l-0.2-0.1
			c-13-7.8-29.3-7-41.4,2.1L0,111.7v78h47.3v-68.7c8.4,9.5,14.1,22.1,20.4,36.2c4.5,10.2,9.2,20.7,15.4,31l0.9,1.5h57.9L80.1,99.4z"
			/>
		<g>
			<path class="st0" d="M0,104.4v-9.8l9.8,4.9L0,104.4z"/>
		</g>
	</g>
</g>
</svg>
